<?xml version="1.0" encoding="iso-8859-1"?>
<!-- Generator: Adobe Illustrator 19.0.0, SVG Export Plug-In . SVG Version: 6.00 Build 0)  -->
<svg version="1.1" id="Layer_1" xmlns="http://www.w3.org/2000/svg" xmlns:xlink="http://www.w3.org/1999/xlink" x="0px" y="0px"
	 viewBox="0 0 512 512" style="enable-background:new 0 0 512 512;" xml:space="preserve">
<path style="fill:#FF8A1E;" d="M174.74,430.93c0,44.878,36.382,81.07,81.26,81.07l22.261-103.331L174.74,430.93z"/>
<path style="fill:#FF562B;" d="M256,512c44.878,0,81.26-36.192,81.26-81.07L256,408.669V512L256,512z"/>
<polygon style="fill:#FFA418;" points="34.846,364.142 34.846,430.93 256,430.93 278.261,341.881 "/>
<path style="fill:#FFBE11;" d="M256,0C176.159,0,111.837,59.674,99.965,136.479c-5.683,36.763-25.84,146.535-25.84,146.535
	l204.137,22.261L256,0z"/>
<g>
	<path style="fill:#FF8A1E;" d="M437.877,283.016c0,0-20.158-109.774-25.842-146.537C400.162,59.674,335.841,0,256,0v305.277
		L437.877,283.016z"/>
	<polygon style="fill:#FF8A1E;" points="256,341.881 256,430.93 477.154,430.93 477.154,364.142 	"/>
</g>
<path style="fill:#FFD460;" d="M256,283.016H74.123c-23.905,18.925-39.277,48.417-39.277,81.126H256l22.261-40.563L256,283.016z"/>
<path style="fill:#FFA418;" d="M437.877,283.016H256v81.126h221.154C477.154,331.433,461.781,301.941,437.877,283.016z"/>
<g>
</g>
<g>
</g>
<g>
</g>
<g>
</g>
<g>
</g>
<g>
</g>
<g>
</g>
<g>
</g>
<g>
</g>
<g>
</g>
<g>
</g>
<g>
</g>
<g>
</g>
<g>
</g>
<g>
</g>
</svg>
