<svg version="1" xmlns="http://www.w3.org/2000/svg" width="933.333" height="933.333" viewBox="0 0 700.000000 700.000000"><path d="M333.9.4c-.2.2-3.3.6-6.9.9-16.5 1.6-37.3 6.5-53 12.6-56.3 22-101.4 66.9-123.8 123.6-7.4 18.5-10.9 32.2-15.2 59.2-1.6 10.2-3.8 22.9-4.5 26.3-.1.3-.5 3-.9 6-.5 3-1 6.4-1.2 7.5-.2 1.1-.9 4.7-1.5 8-.5 3.3-1.2 7.1-1.5 8.5-1 5.5-5.3 29.7-5.9 33-1.1 6.8-4.4 25.5-5 28.5-.9 4.8-2.5 13.7-3.1 17.5-.3 1.9-1 5.4-1.5 7.8-.5 2.3-1.2 5.9-1.5 7.8-.3 2-.8 4.6-1 5.8-.2 1.1-.9 4.8-1.5 8.1-.5 3.3-1.1 6.7-1.3 7.5-.1.8-.9 5-1.6 9.4-1.2 7.1-1.7 8.1-5.3 11.5-24.4 22.1-39.1 46.3-46.6 76.6-3 12.2-3.4 21.3-3.5 73.5v48.5l95.7.3 95.7.2.1 4.8c.1 8.6 2.2 20.2 5.5 30.2 10.9 33 37.7 59.6 70.9 70.4 8.6 2.8 10.8 3.3 20 4.6 6.3.9 31.7.6 33.3-.4.5-.3 2.6-.8 4.7-1.2 12.1-1.9 32.7-11.5 44.5-20.7 22.2-17.4 37.6-43.3 41.5-69.7.4-2.5.9-5.2 1-6 .2-.8.4-3.9.4-6.8l.1-5.2h95.4c90 0 95.4-.1 95.8-1.8.7-3 .1-98.5-.6-104.7-.4-3.3-1.4-9.2-2.2-13-.9-3.9-1.7-7.8-1.9-8.8-1.6-7.4-10.4-27.7-15.7-36.2-8.2-12.9-15.8-21.9-27.8-33l-5.4-5-4.8-26c-2.6-14.3-5-27.4-5.2-29-.9-5-2.4-13.4-4.5-25-1.1-6.1-3.2-17.8-4.6-26-1.4-8.3-2.8-16.1-3.1-17.5-.8-4.3-8.5-48.3-9-52-.3-1.9-.7-4.6-1-6-.2-1.4-.6-3.6-.9-5-6.5-38.8-11.8-56.7-23.8-80.5-4.9-9.7-19.1-32.2-23.9-37.7-1.3-1.5-3.3-4-4.5-5.6-3.4-4.4-19.1-20.1-25.8-25.8-26.4-22.5-61.5-39.5-94.5-46-1.4-.3-3.2-.7-4-.9-.8-.2-4.2-.7-7.5-1.1-3.3-.3-6.4-.9-6.9-1.2-.9-.5-40.1-1.3-40.7-.8z"/></svg>